<svg xmlns="http://www.w3.org/2000/svg" width="18.512" height="11.608" viewBox="0 0 18.512 11.608">
  <g id="predict_hand-15" data-name="predict hand-15" transform="translate(0.005 -0.002)">
    <path id="Path_318" data-name="Path 318" d="M152.129,61.983c-.089-.008-.18-.013-.271-.013a2.828,2.828,0,0,0-2.638,3.846,3.249,3.249,0,0,1,2.91-3.833Z" transform="translate(-142.579 -59.284)" fill="#ffb300"/>
    <path id="Path_319" data-name="Path 319" d="M137.253,215.43c-.559.676-2.252.872-3.333.872s-2.772-.2-3.333-.872l-.217.567a1.35,1.35,0,0,0-.091.486v.021c0,.664,1.631,1.2,3.642,1.2s3.642-.538,3.642-1.2v-.021a1.36,1.36,0,0,0-.09-.486Z" transform="translate(-124.642 -206.096)" fill="#ffb300"/>
    <path id="Path_320" data-name="Path 320" d="M136.256,44.4a.2.2,0,0,0-.14.142l-.052.177a3.272,3.272,0,1,1-1.451-1.473l.161-.043a.206.206,0,0,0,.14-.141l.029-.1a3.674,3.674,0,0,0-4.266,5.929c-.411.163-.658.367-.658.59,0,.531,1.393.961,3.112.961s3.111-.43,3.111-.961c0-.223-.246-.427-.657-.59a3.673,3.673,0,0,0,.761-4.517Z" transform="translate(-123.853 -40.644)" fill="#ffb300"/>
    <path id="Path_321" data-name="Path 321" d="M239.385,42.086l-.208-.736-.208.736a.612.612,0,0,1-.421.421l-.736.208.736.208a.612.612,0,0,1,.421.421l.208.736.208-.736a.61.61,0,0,1,.421-.421l.736-.208-.736-.208A.611.611,0,0,1,239.385,42.086Z" transform="translate(-227.514 -39.557)" fill="#ffb300"/>
    <path id="Path_322" data-name="Path 322" d="M235.4,99.27l.133.468.133-.468A.39.39,0,0,1,235.93,99l.468-.133-.467-.133a.39.39,0,0,1-.268-.269L235.529,98l-.133.468a.39.39,0,0,1-.269.269l-.468.133.468.133A.39.39,0,0,1,235.4,99.27Z" transform="translate(-224.5 -93.753)" fill="#ffb300"/>
    <path id="Path_323" data-name="Path 323" d="M7.532.5A.235.235,0,0,0,7.656.212C7.6.006,7.4,0,7.254.009S6.542.043,6.067.077A1.866,1.866,0,0,0,5.05.348c-.362.212-1.378.827-1.9,1.119S2.6,2,2.225,3.218A5.973,5.973,0,0,1,1.6,4.936,11.115,11.115,0,0,1,.082,6.085a.2.2,0,0,0-.083.2A2.172,2.172,0,0,0,1.114,7.865a.2.2,0,0,0,.217-.023,5.463,5.463,0,0,1,1.222-.761,2.92,2.92,0,0,0,1.43-.925c.3-.433.339-.525.619-2.076a7.183,7.183,0,0,1,.49-1.624,1.373,1.373,0,0,0,.1-.709.211.211,0,0,0-.136-.173.44.44,0,0,0-.386.13,4.862,4.862,0,0,0-.583,1.247c-.08.217-.143.385-.191.48a2.659,2.659,0,0,1-.65.8A.173.173,0,0,1,3,4.218a.179.179,0,0,1,.023-.244,2.284,2.284,0,0,0,.566-.7c.039-.078.1-.249.176-.446a4.276,4.276,0,0,1,.677-1.386.766.766,0,0,1,.721-.2.549.549,0,0,1,.363.411h0A6.491,6.491,0,0,1,7.223,1,.423.423,0,0,0,7.532.5Z" transform="translate(0 -0.003)" fill="#ffb300"/>
    <path id="Path_324" data-name="Path 324" d="M257.94,6.082a11.184,11.184,0,0,1-1.521-1.15,5.975,5.975,0,0,1-.622-1.718c-.373-1.221-.407-1.458-.927-1.751s-1.537-.9-1.9-1.119a1.848,1.848,0,0,0-1.017-.271c-.474-.034-1.04-.056-1.186-.068s-.35-.006-.4.2a.234.234,0,0,0,.124.283.416.416,0,0,0,.3.5,6.537,6.537,0,0,1,1.7.66h0a.549.549,0,0,1,.363-.411.768.768,0,0,1,.721.2,4.3,4.3,0,0,1,.677,1.386c.073.2.137.367.176.446a2.288,2.288,0,0,0,.566.7.179.179,0,0,1,.023.244.173.173,0,0,1-.25.018,2.687,2.687,0,0,1-.65-.8c-.048-.095-.111-.265-.191-.48a4.886,4.886,0,0,0-.583-1.248.444.444,0,0,0-.386-.13.215.215,0,0,0-.136.173,1.373,1.373,0,0,0,.1.709,7.2,7.2,0,0,1,.491,1.624c.279,1.551.322,1.644.619,2.076a2.914,2.914,0,0,0,1.432.924,5.4,5.4,0,0,1,1.222.761.2.2,0,0,0,.217.023,2.172,2.172,0,0,0,1.115-1.578A.2.2,0,0,0,257.94,6.082Z" transform="translate(-239.518 0)" fill="#ffb300"/>
  </g>
</svg>
